<?xml version="1.0" encoding="utf-8"?>
<!-- Generator: Adobe Illustrator 16.0.4, SVG Export Plug-In . SVG Version: 6.00 Build 0)  -->
<!DOCTYPE svg PUBLIC "-//W3C//DTD SVG 1.1//EN" "http://www.w3.org/Graphics/SVG/1.1/DTD/svg11.dtd">
<svg version="1.1" id="Layer_1" xmlns="http://www.w3.org/2000/svg" xmlns:xlink="http://www.w3.org/1999/xlink" x="0px" y="0px"
	 width="50px" height="50px" viewBox="0 0 50 50" enable-background="new 0 0 50 50" xml:space="preserve">
<polygon points="44.192,41.716 32.275,38.959 23.25,47.214 22.188,35.028 11.548,28.995 22.81,24.22 25.26,12.238 33.281,21.471 
	45.435,20.099 39.131,30.581 "/>
<polygon points="18.672,11.569 14.061,15.522 14.705,21.561 9.521,18.398 3.977,20.876 5.382,14.969 1.312,10.462 7.365,9.973 
	10.394,4.71 12.729,10.315 "/>
<polygon points="47.744,8.258 44.91,10.688 45.306,14.398 42.121,12.455 38.713,13.978 39.577,10.348 37.076,7.578 40.796,7.277 
	42.656,4.043 44.092,7.488 "/>
</svg>
